<?xml version="1.0" encoding="UTF-8" standalone="no"?>
<!DOCTYPE svg PUBLIC "-//W3C//DTD SVG 1.1//EN" "http://www.w3.org/Graphics/SVG/1.1/DTD/svg11.dtd">
<svg width="100%" height="100%" viewBox="0 0 800 800" version="1.1" xmlns="http://www.w3.org/2000/svg" xmlns:xlink="http://www.w3.org/1999/xlink" xml:space="preserve" xmlns:serif="http://www.serif.com/" style="fill-rule:evenodd;clip-rule:evenodd;stroke-linejoin:round;stroke-miterlimit:2;">
    <g transform="matrix(1,0,0,1,-2083,-4232)">
        <g transform="matrix(2.02015,0,0,2.02017,1796.24,3675.9)">
            <rect x="142.327" y="275.741" width="396.011" height="396.011" style="fill:none;"/>
            <g transform="matrix(0.495014,0,0,0.495007,-890.873,-125.284)">
                <path d="M2627.3,962.601C2709.78,1011.67 2765.09,1101.71 2765.09,1204.56C2765.09,1359.84 2639.03,1485.9 2483.76,1485.9C2328.49,1485.9 2202.43,1359.84 2202.43,1204.56C2202.43,1076.59 2288.06,968.456 2405.09,934.395L2405.09,973.748C2309.09,1006.5 2239.95,1097.52 2239.95,1204.56C2239.95,1339.12 2349.2,1448.37 2483.76,1448.37C2618.32,1448.37 2727.57,1339.12 2727.57,1204.56C2727.57,1118.35 2682.72,1042.53 2615.12,999.181L2592.31,1067.67L2462.22,937.658L2644.28,911.598L2627.3,962.601Z" style="fill:url(#_Linear1);"/>
            </g>
        </g>
    </g>
    <defs>
        <linearGradient id="_Linear1" x1="0" y1="0" x2="1" y2="0" gradientUnits="userSpaceOnUse" gradientTransform="matrix(562.667,0,0,574.299,2202.42,1198.75)"><stop offset="0" style="stop-color:rgb(101,105,116);stop-opacity:1"/><stop offset="1" style="stop-color:rgb(33,39,46);stop-opacity:1"/></linearGradient>
    </defs>
</svg>
